<?xml version="1.0" encoding="iso-8859-1"?>
<!-- Uploaded to: SVG Repo, www.svgrepo.com, Generator: SVG Repo Mixer Tools -->
<svg height="800px" width="800px" version="1.1" id="Layer_1" xmlns="http://www.w3.org/2000/svg" xmlns:xlink="http://www.w3.org/1999/xlink" 
	 viewBox="0 0 511.6 511.6" xml:space="preserve">
<path style="fill:#E6E9ED;" d="M468.961,127.9V74.613c0-11.788-9.555-21.327-21.326-21.327H21.312C9.54,53.286,0,62.825,0,74.613
	V127.9H468.961z"/>
<polygon style="fill:#656D78;" points="395.863,415.675 0,415.675 0,95.925 468.961,95.925 468.961,319.078 "/>
<path style="fill:#ED5564;" d="M42.623,74.613c0,5.886-4.778,10.648-10.648,10.648c-5.902,0-10.664-4.762-10.664-10.648
	S26.073,63.95,31.975,63.95C37.845,63.95,42.623,68.728,42.623,74.613z"/>
<path style="fill:#FFCE54;" d="M74.598,74.613c0,5.886-4.778,10.648-10.648,10.648c-5.902,0-10.664-4.762-10.664-10.648
	S58.049,63.95,63.95,63.95C69.821,63.95,74.598,68.728,74.598,74.613z"/>
<path style="fill:#A0D468;" d="M106.573,74.613c0,5.886-4.762,10.648-10.663,10.648c-5.886,0-10.648-4.762-10.648-10.648
	S90.024,63.95,95.91,63.95C101.811,63.95,106.573,68.728,106.573,74.613z"/>
<path style="fill:#FC6E51;" d="M373.037,138.548H53.287c-5.886,0-10.664,4.777-10.664,10.663s4.777,10.664,10.664,10.664h319.75
	c5.885,0,10.646-4.778,10.646-10.664C383.684,143.325,378.922,138.548,373.037,138.548z"/>
<path style="fill:#AC92EB;" d="M53.287,202.498H223.81c5.886,0,10.664-4.762,10.664-10.648s-4.777-10.663-10.664-10.663H53.287
	c-5.886,0-10.664,4.777-10.664,10.663C42.623,197.736,47.401,202.498,53.287,202.498z"/>
<path style="fill:#48CFAD;" d="M287.76,223.825H53.287c-5.886,0-10.664,4.762-10.664,10.648c0,5.901,4.777,10.664,10.664,10.664
	H287.76c5.885,0,10.664-4.762,10.664-10.664C298.424,228.587,293.645,223.825,287.76,223.825z"/>
<path style="fill:#5D9CEC;" d="M53.287,287.776h149.211c5.886,0,10.664-4.778,10.664-10.664s-4.777-10.664-10.664-10.664H53.287
	c-5.886,0-10.664,4.778-10.664,10.664S47.401,287.776,53.287,287.776z"/>
<path style="fill:#FFCE54;" d="M223.81,309.086H53.287c-5.886,0-10.664,4.777-10.664,10.664c0,5.886,4.777,10.647,10.664,10.647
	H223.81c5.886,0,10.664-4.762,10.664-10.647C234.473,313.863,229.696,309.086,223.81,309.086z"/>
<path style="fill:#ED5564;" d="M138.548,351.725H53.287c-5.886,0-10.664,4.762-10.664,10.648c0,5.886,4.777,10.663,10.664,10.663
	h85.261c5.886,0,10.664-4.777,10.664-10.663S144.434,351.725,138.548,351.725z"/>
<polygon style="fill:#3BAED9;" points="468.961,266.447 298.424,266.447 255.769,330.429 383.684,458.314 511.584,330.398 "/>
<polygon style="fill:#4FC0E8;" points="319.735,330.398 383.684,458.314 447.635,330.398 "/>
<polygon style="fill:#4BBDE0;" points="298.424,266.447 255.769,330.429 319.735,330.398 "/>
<g>
	<polygon style="fill:#56CEEF;" points="319.719,330.429 383.699,266.447 298.408,266.463 	"/>
	<polygon style="fill:#56CEEF;" points="447.619,330.429 468.946,266.447 383.668,266.463 	"/>
</g>
<polygon style="fill:#4BBDE0;" points="468.961,266.447 447.619,330.429 511.6,330.398 "/>
<polygon style="fill:#5CDAF7;" points="383.684,266.463 319.735,330.398 447.635,330.398 "/>
</svg>